<svg width="218" height="46" viewBox="0 0 218 46" fill="none" xmlns="http://www.w3.org/2000/svg" class="styles_logo__w7Ckz"><path fill-rule="evenodd" clip-rule="evenodd" d="M53.2052 9.6337C54.5661 11.1745 55.2818 13.2058 55.1967 15.2866V26.6292H50.4241V16.3302C50.4717 15.1801 50.1094 14.0518 49.4054 13.1576C49.0782 12.7641 48.6683 12.4525 48.2068 12.2462C47.7453 12.04 47.2442 11.9446 46.7416 11.9672C43.7636 11.9672 42.2746 14.105 42.2746 18.3805V26.6292H37.4766V8.00809H42.2746V9.69138C43.026 8.93909 43.9185 8.35251 44.8977 7.96751C45.8768 7.5825 46.9219 7.40717 47.9691 7.45223C48.9422 7.41274 49.9124 7.58682 50.8151 7.96293C51.7179 8.33904 52.5326 8.90857 53.2052 9.6337Z" fill="white"></path><path fill-rule="evenodd" clip-rule="evenodd" d="M61.2852 0V26.6286H66.0679V0H61.2852Z" fill="white"></path><path fill-rule="evenodd" clip-rule="evenodd" d="M93.1073 26.6266H89.1344L85.2227 15.6563L81.2701 26.6266H77.2667L70.5586 7.96875H75.652L79.4569 19.1278L83.3432 7.96875H87.0716L90.9579 19.1645L94.727 7.96875H99.8205L93.1073 26.6266Z" fill="white"></path><path d="M28.1069 27.1044L21.1238 31.9025L5.42578 23.2658L12.307 18.5463L19.718 22.6261C19.718 20.9952 19.718 17.0256 19.718 13.4597L28.0968 7.69141C28.0968 11.2363 28.0968 20.0356 28.1069 27.1044Z" fill="#8257E5"></path><path d="M15.2804 16.5471L7.64019 12.3519C7.64019 14.0247 7.64019 18.1727 7.64019 21.791C4.44149 23.9986 1.57897 25.9599 0 27.0349C0 23.4428 0 14.4495 0 7.34399L6.74883 2.70312L22.6812 11.4709L15.2804 16.5471Z" fill="#8257E5"></path><path fill-rule="evenodd" clip-rule="evenodd" d="M144.554 19.6459V1.98438H148.812V8.43963H157.945V12.4198H148.812V19.6459C148.812 22.079 150.03 23.0334 151.787 23.0334C153.544 23.0334 154.756 22.1158 154.756 19.6459V19.1634H159.019V19.6459C159.019 24.6958 156.081 27.1289 151.787 27.1289C147.493 27.1289 144.554 24.6958 144.554 19.6459ZM113.475 7.95597C108.86 7.95597 105.707 10.5727 105.707 16.0683L105.717 26.6453H109.975V16.0735C109.975 13.1055 111.407 12.0567 113.485 12.0567C115.563 12.0567 116.994 13.1212 116.994 16.0735V16.2571H121.222V16.1417C121.222 10.5727 118.089 7.95597 113.475 7.95597ZM132.311 7.95597C126.723 7.95597 122.786 12.0095 122.786 17.5418C122.786 23.0742 126.723 27.1277 132.311 27.1277C136.498 27.1277 139.722 24.8781 141.046 21.4118H136.498C135.601 22.5917 134.205 23.1423 132.311 23.1423C129.81 23.1423 127.834 21.7422 127.263 19.0888H141.764V17.5418C141.764 12.0095 137.898 7.95597 132.311 7.95597ZM132.311 11.9151C134.638 11.9151 136.569 13.1527 137.251 15.5859H127.37C128.047 13.1684 129.983 11.9151 132.311 11.9151ZM161.741 8.44041V17.9109C161.741 24.0306 165.25 27.1297 170.476 27.1297C175.702 27.1297 179.211 23.9938 179.211 17.9109V8.44041H174.953V17.9109C174.953 21.3771 173.16 23.0342 170.476 23.0342C167.792 23.0342 165.999 21.3771 165.999 17.9109V8.44041H161.741ZM182.72 16.0683C182.72 10.5727 185.873 7.95597 190.488 7.95597C195.103 7.95597 198.225 10.5779 198.225 16.1417V16.2571H193.997V16.0735C193.997 13.1107 192.566 12.062 190.493 12.062C188.42 12.062 186.984 13.1107 186.984 16.0788V26.6453H182.725L182.72 16.0683ZM209.253 7.95597C204.022 7.95597 200.513 11.0918 200.513 17.1748L200.493 26.6453H204.756V17.1748C204.756 13.7085 206.579 12.0515 209.264 12.0515C211.948 12.0515 213.736 13.7085 213.736 17.1748V26.6453H217.999V17.1748C217.999 11.0551 214.484 7.95597 209.253 7.95597ZM193.827 40.0761L196.87 43.2059L194.161 46.0009L187.59 39.2363V36.4413L194.161 29.6766L196.87 32.4664L193.699 35.7342H207.78C208.565 35.7321 209.342 35.5706 210.066 35.2587C210.791 34.9469 211.448 34.491 212.001 33.9171C212.553 33.3432 212.99 32.6626 213.287 31.9144C213.584 31.1662 213.734 30.365 213.729 29.5569V26.6465H217.998V29.5569C217.995 32.3486 216.916 35.025 214.997 36.9976C213.078 38.9702 210.477 40.0775 207.765 40.0761H193.827Z" fill="url(#paint0_linear_7444_492)"></path><defs><linearGradient id="paint0_linear_7444_492" x1="108.962" y1="37.8364" x2="215.31" y2="37.8364" gradientUnits="userSpaceOnUse"><stop stop-color="#8257E5"></stop><stop offset="0.53" stop-color="#D72891"></stop><stop offset="1" stop-color="#F1594B"></stop></linearGradient></defs></svg>