<svg width="256" height="48" viewBox="0 0 256 48" fill="none" xmlns="http://www.w3.org/2000/svg" class="styles_logoRocketseat__fgN8k"><path d="M53.3381 14.0967C51.1842 14.0967 49.4082 15.797 49.4082 17.941V26.0732V34.2054H53.3381V26.0732V17.941H58.0239H62.7096V14.0967H58.0239H53.3381Z" fill="#E1E1E6"></path><path d="M86.1384 24.1129V17.9029C86.1384 15.7959 84.4002 14.0586 82.2085 14.0586H75.8601H69.5117C67.3578 14.0586 65.5818 15.759 65.5818 17.9029V24.1129V30.323C65.5818 32.43 67.32 34.1673 69.5117 34.1673H75.8601H82.2085C84.3624 34.1673 86.1384 32.4669 86.1384 30.323V24.1129ZM82.2085 24.1129V30.323H75.8601H69.5117V24.1129V17.9029H75.8601H82.2085V24.1129Z" fill="#E1E1E6"></path><path d="M93.9988 14.0967C91.8449 14.0967 90.0688 15.797 90.0688 17.941V24.151V30.3611C90.0688 32.4681 91.8071 34.2054 93.9988 34.2054L107.829 34.0206V30.3611H93.9988V24.151V17.941H107.829V14.2815L93.9988 14.0967Z" fill="#E1E1E6"></path><path d="M130.354 14.0967H125.025L117.241 22.1919H115.692V14.0967H111.762V24.1141V34.1684H115.692V26.0362H117.657H117.959L126.046 34.1684H131.449L121.058 23.6705L130.354 14.0967Z" fill="#E1E1E6"></path><path d="M136.207 30.323V26.0351L152.834 25.8503V22.1908V17.9029C152.834 15.7959 151.096 14.0586 148.904 14.0586H142.556H136.207C134.053 14.0586 132.277 15.759 132.277 17.9029V24.1129V30.323C132.277 32.43 134.016 34.1673 136.207 34.1673L152.834 33.9825V30.323H136.207ZM136.207 17.9029H142.556H148.904V22.1908H144.521H136.207V17.9029Z" fill="#E1E1E6"></path><path d="M162.697 8.21582H161.185L158.767 11.136V14.0562H155.781V17.9005L158.767 17.8636V30.3206C158.767 32.4276 160.505 34.1649 162.697 34.1649L169.045 33.9801V30.3206H162.697V17.8266L169.612 17.7157V14.0562H162.697V8.21582Z" fill="#E1E1E6"></path><path d="M190.319 26.0351C190.319 23.9281 188.581 22.1908 186.389 22.1908H181.439H176.489V17.9029H190.319V14.2434L176.489 14.0586C174.335 14.0586 172.559 15.759 172.559 17.9029V22.1908C172.559 24.2978 174.297 26.0351 176.489 26.0351H181.439H186.389V30.323H172.559V33.9825L186.389 34.1673C188.543 34.1673 190.319 32.4669 190.319 30.323V26.0351Z" fill="#E1E1E6"></path><path d="M210.838 14.0967H204.49H198.141C195.987 14.0967 194.211 15.797 194.211 17.941V24.151V30.3611C194.211 32.4681 195.95 34.2054 198.141 34.2054L214.768 34.0206V30.3611H198.141V26.0732L214.768 25.8884V22.2289V17.941C214.768 15.797 213.03 14.0967 210.838 14.0967ZM210.838 22.1919H198.141V17.904H204.49H210.838V22.1919Z" fill="#E1E1E6"></path><path d="M235.324 14.0967L218.697 14.2815V17.941H235.324V22.2289L218.697 22.4137V26.0732V30.3611C218.697 32.4681 220.436 34.2054 222.627 34.2054H228.976H235.324C237.478 34.2054 239.254 32.505 239.254 30.3611V24.151V17.941C239.216 15.797 237.478 14.0967 235.324 14.0967ZM235.324 30.3241H228.976H222.627V26.0362H235.324V30.3241Z" fill="#E1E1E6"></path><path d="M249.085 17.8274L256 17.7165V14.057H249.085V8.17969H247.574L245.155 11.0999V14.0201H242.17V17.8644L245.155 17.8274V30.2845C245.155 32.3915 246.894 34.1288 249.085 34.1288L255.434 33.944V30.2845H249.085V17.8274Z" fill="#E1E1E6"></path><path d="M39.0183 0.933946L32.6321 0.00983247C32.4432 -0.0271321 32.2542 0.0467925 32.1787 0.120722L29.4579 3.59539C29.269 3.81718 29.2312 4.11289 29.3068 4.37165C29.3824 4.6304 29.1556 4.85219 28.8911 4.81522L26.6616 4.33468C26.3215 4.26075 25.9437 4.37165 25.7169 4.66737L16.8745 15.7567C16.7234 15.9785 16.4211 16.0525 16.1566 15.9416L12.7934 14.463C12.4911 14.3151 12.151 14.3521 11.8865 14.5369L10.1861 15.6828C9.92156 15.8676 9.54368 15.9046 9.24137 15.7567L8.41004 15.3501C7.88101 15.0914 7.23861 15.3871 7.08746 15.9416L6.48285 18.566C6.3317 19.1944 6.59621 19.8228 7.16303 20.1555L8.44782 20.9318L12.5667 23.4084L14.5695 24.6282C15.1363 24.9609 15.8543 24.887 16.3455 24.4804L19.7086 21.5971C19.9732 21.3753 20.3888 21.3014 20.6911 21.4862L21.7114 22.0037C22.0515 22.1886 22.4672 22.1146 22.7317 21.8559L24.4321 20.3034C24.6967 20.0446 25.1123 20.0077 25.4146 20.1555L27.9464 21.3014C28.3243 21.4862 28.7778 21.3753 29.0423 21.0427L30.2137 19.5641L39.0939 8.43775C39.5095 7.92024 39.245 7.14399 38.5648 6.99613L36.5999 6.55255C36.1842 6.47862 35.9953 5.96112 36.2976 5.66541L39.3584 1.93198C39.6607 1.48841 39.4717 1.00788 39.0183 0.933946Z" fill="#E1E1E6"></path><path d="M9.73172 23.3343C9.54278 23.2234 9.35384 23.4082 9.42942 23.593L10.3741 26.0327C10.4497 26.2175 10.4497 26.4023 10.4119 26.5871L9.58057 29.7661C9.54278 29.9879 9.61835 30.2097 9.76951 30.3205L12.1501 32.1318C12.3769 32.2797 12.6792 32.2797 12.8681 32.0949L15.3621 29.9509C15.5133 29.84 15.7022 29.7661 15.8534 29.7291L18.6875 29.4334C18.8764 29.3964 18.952 29.1377 18.763 29.0268L9.73172 23.3343Z" fill="#E1E1E6"></path><path d="M8.90126 31.5421C8.7501 31.4312 8.52338 31.3942 8.33444 31.4681L6.33168 32.4292C6.21832 32.4662 6.14274 32.5771 6.06716 32.688L1.79712 43.0011C1.79712 43.0381 1.79712 43.038 1.79712 43.075C1.83491 43.112 1.8727 43.1489 1.94827 43.1489L2.93076 42.7793C2.96855 42.7793 3.00633 42.7793 3.04412 42.7793C3.08191 42.8163 3.1197 42.8902 3.08191 42.9272L0.0210856 47.8434C-0.0544903 47.9543 0.096665 48.0652 0.172241 47.9543L11.2441 37.0868C11.3575 36.9759 11.3953 36.865 11.4331 36.7171L11.6598 33.9078C11.6598 33.723 11.5842 33.5751 11.4708 33.4642L8.90126 31.5421Z" fill="#E1E1E6"></path></svg>